<?xml version="1.0" encoding="utf-8"?><!DOCTYPE svg><svg width="96" height="96" viewBox="0 0 96 96" xmlns="http://www.w3.org/2000/svg" xmlns:xlink="http://www.w3.org/1999/xlink"><svg baseProfile="full" width="32" height="32" viewBox="0 0 32 32" id="facebook"><path fill="#3b5998" d="M0 0h32v32H0z"/><path fill="#fff" d="M22 32V20h4l.8-5H22v-3.3c0-1.4.5-2.4 2.5-2.4H27V5c-.4-.1-1.9-.2-3.7-.2-3.7 0-6.3 2.3-6.3 6.4V15h-4v5h4v12h5z"/></svg><svg baseProfile="full" width="32" height="32" viewBox="0 0 32 32" id="flickr" x="32"><path fill="#e6e6e6" d="M0 0h32v32H0z"/><circle fill="#ff0084" cx="23" cy="16" r="6"/><circle fill="#0063dc" cx="9" cy="16" r="6"/></svg><svg width="32" height="32" viewBox="488.5 504.5 32 32" id="github" y="32"><path d="M504.5 504.895c-8.836 0-16 7.164-16 16 0 7.07 4.584 13.066 10.942 15.182.8.146 1.092-.348 1.092-.77 0-.38-.015-1.643-.022-2.98-4.45.968-5.39-1.886-5.39-1.886-.73-1.847-1.776-2.34-1.776-2.34-1.454-.99.11-.972.11-.972 1.606.11 2.452 1.648 2.452 1.648 1.428 2.445 3.746 1.738 4.656 1.328.146-1.03.56-1.738 1.016-2.137-3.552-.404-7.288-1.777-7.288-7.908 0-1.75.624-3.175 1.646-4.295-.163-.406-.714-2.034.158-4.236 0 0 1.342-.43 4.4 1.64a15.255 15.255 0 0 1 4.004-.538c1.36.006 2.73.184 4.006.54 3.053-2.072 4.396-1.64 4.396-1.64.875 2.203.324 3.83.16 4.233 1.025 1.12 1.645 2.546 1.645 4.294 0 6.145-3.742 7.5-7.307 7.895.576.496 1.086 1.47 1.086 2.96 0 2.14-.02 3.864-.02 4.392 0 .426.29.924 1.1.768 6.355-2.12 10.935-8.115 10.935-15.182 0-8.834-7.164-15.998-16-15.998z"/></svg><svg baseProfile="full" width="32" height="32" viewBox="0 0 32 32" id="googleplus" x="32" y="32"><path fill="#ce3825" d="M0 0h32v32H0z"/><g fill="#fff"><path d="M31 8h-5V3h-2v5h-5v2h5v5h2v-5h5zM18.5 2H8.8c-1.288 0-2.667.15-4.138.452-1.487.35-2.92 1.094-4.3 2.236-.124.12-.245.244-.362.367v11.91c1.32 1.24 3.114 1.873 5.38 1.9.49 0 1.008-.03 1.56-.097-.092.256-.19.535-.297.838-.122.287-.182.646-.182 1.076 0 .717.16 1.33.48 1.842.273.525.585 1.02.934 1.483-1.13.03-2.554.173-4.266.427-1.243.215-2.446.59-3.608 1.116v2.683c.216-.3.455-.568.72-.803.462-.38.918-.674 1.365-.88.448-.19.795-.333 1.043-.43a20.657 20.657 0 0 1 3.08-.688c1.02-.096 1.653-.127 1.9-.096.418 0 .78.016 1.09.047 1.806 1.27 3.134 2.34 3.983 3.213.804.92 1.206 1.998 1.206 3.235 0 .058-.002.113-.004.17h2.84c.19-.667.288-1.358.288-2.074-.03-1.666-.408-3.013-1.135-4.045a16.66 16.66 0 0 0-2.69-2.782l-1.646-1.356a9.528 9.528 0 0 1-.734-.832c-.296-.332-.445-.753-.445-1.26 0-.523.146-.983.435-1.38.246-.38.513-.723.802-1.023.506-.444.983-.88 1.43-1.31a13.17 13.17 0 0 0 1.15-1.402c.737-1.047 1.12-2.442 1.15-4.187 0-.952-.108-1.784-.32-2.498a9.286 9.286 0 0 0-.892-1.855 8.793 8.793 0 0 0-1.074-1.403c-.38-.366-.722-.402-1.026-.592h2.99L18.5 2zm-6.893 12.247c-.117.65-.38 1.287-.79 1.906-.853.875-1.917 1.334-3.193 1.384-1.01 0-1.91-.31-2.695-.93a7.53 7.53 0 0 1-1.926-2.266c-1.027-1.905-1.54-3.742-1.54-5.505-.032-1.334.32-2.542 1.055-3.623.87-1.033 1.963-1.565 3.278-1.597.994.032 1.872.326 2.637.883.748.588 1.353 1.35 1.812 2.288.978 1.955 1.467 3.894 1.467 5.816 0 .445-.036.993-.107 1.645z"/></g></svg><svg baseProfile="full" width="32" height="32" viewBox="0 0 32 32" id="linkedin" x="64"><path fill="#39c" d="M0 0h32v32H0z"/><g fill="#fff"><path d="M10 27V12H5v15h5zM18 18.65c0-.445-.02-.892.1-1.212.33-.892.633-1.688 1.9-1.688 1.658 0 2 1.242 2 3.25v8h5v-8.572c0-4.59-1.982-6.728-5-6.728-2.475 0-3.396 1.498-4 2.52V12h-5v15h5v-8.35z"/><circle cx="7.5" cy="7.5" r="2.5"/></g></svg><svg baseProfile="full" width="32" height="32" viewBox="0 0 32 32" id="pinterest" x="64" y="32"><path fill="#cb2027" d="M0 0h32v32H0z"/><path fill="#fff" d="M9 32c0-1.207 0-2.69.382-4l2.22-9.412S11 17.5 11 15.858c0-2.557 1.533-4.5 3.378-4.5 1.57 0 2.328 1.182 2.328 2.592 0 1.58-1.007 3.94-1.523 6.122-.433 1.834.914 3.324 2.722 3.324 3.272 0 5.5-4.197 5.474-9.172 0-3.782-2.55-6.612-7.184-6.612-5.232 0-8.5 3.903-8.5 8.262 0 1.503.442 2.564 1.137 3.388.326.408.28.558.167.992-.084.314-.187 1.082-.265 1.383-.115.44-.468.523-.863.363-2.41-.986-3.536-3.555-3.536-6.523 0-4.9 4.137-10.78 12.336-10.78 6.585 0 10.923 4.768 10.923 9.886 0 6.77-3.765 11.824-9.313 11.824-1.857 0-3.612-1-4.212-2.148 0 0-1 4-1.215 4.74-.366 1.33-.662 1.966-1.317 3H9z"/></svg><svg baseProfile="full" width="32" height="32" viewBox="0 0 32 32" id="twitter" y="64"><path fill="#00aced" d="M0 0h32v32H0z"/><path fill="#fff" d="M26.666 9.384a8.748 8.748 0 0 1-2.514.69 4.39 4.39 0 0 0 1.925-2.423c-.846.5-1.782.867-2.78 1a4.37 4.37 0 0 0-3.193-1.38 4.376 4.376 0 0 0-4.377 4.375c0 .343 0 .677.113 1a12.342 12.342 0 0 1-9-4.573 4.36 4.36 0 0 0-.592 2.2c0 1.52.772 2.858 1.947 3.643-.717 0-1.392-.22-1.982-.547 0 2.12 1.5 3.89 3.51 4.292-.366.1-.753.153-1.152.153H7.75c.557 1.74 2.173 3 4 3a8.775 8.775 0 0 1-5.436 1.874c-.354 0-.702 0-1-.062a12.394 12.394 0 0 0 6.71 1.967c8.05 0 12.453-6.67 12.453-12.453v-.567c.863-.54 1.605-1.31 2.19-2.19z"/></svg><svg baseProfile="full" width="32" height="32" viewBox="0 0 32 32" id="youtube" x="32" y="64"><linearGradient id="ha" gradientUnits="userSpaceOnUse" x1="-10.744" y1="-31.324" x2="-10.744" y2="-46.324" gradientTransform="translate(26.744 61.324)"><stop offset="0" stop-color="#6d0d13"/><stop offset=".6" stop-color="#ab2624"/><stop offset="1" stop-color="#cd332d"/></linearGradient><path fill="#ebebeb" d="M0 0h32v32H0z"/><g fill="#242424"><path d="M8 2h1.61l1.037 4.397h.1L11.738 2h1.623L11.5 8.436V13H9.9V8.64L8 2zM13.248 6.986c0-.605.19-1.087.573-1.447.383-.36.897-.54 1.54-.54.588 0 1.07.19 1.444.568.375.38.563.866.563 1.462v4.04c0 .67-.184 1.196-.55 1.577-.37.38-.875.57-1.52.57-.62 0-1.118-.195-1.49-.59-.373-.392-.56-.92-.56-1.586V6.987zm1.46 4.202c0 .215.05.382.152.5s.246.175.433.175c.192 0 .346-.06.46-.18.11-.12.17-.285.17-.496v-4.26c0-.17-.06-.31-.175-.414a.65.65 0 0 0-.455-.158.578.578 0 0 0-.42.158.55.55 0 0 0-.163.414v4.26zM22.624 5v8h-1.42v-.863c-.263.318-.534.56-.817.727-.283.166-.558.25-.824.25-.327 0-.575-.117-.74-.35-.167-.233-.25-.583-.25-1.05V5h1.42v6.174c0 .185.028.32.088.403.06.083.156.125.29.125.104 0 .237-.056.396-.165.16-.11.307-.25.438-.42V5h1.42z"/></g><path fill="url(#ha)" d="M16 30c2.874.002 5.763 0 8.614-.3 1.203-.126 2.204-.97 2.484-2.115.4-1.63.4-3.41.4-5.086 0-1.68-.004-3.457-.404-5.088-.28-1.145-1.28-1.988-2.484-2.113-2.853-.3-5.736-.3-8.61-.3-2.875 0-5.757 0-8.61.3-1.204.124-2.204.968-2.485 2.112-.4 1.63-.405 3.408-.405 5.087 0 1.676 0 3.456.4 5.085.282 1.145 1.282 1.99 2.486 2.114 2.852.3 5.74.302 8.614.3z"/><g fill="#fff"><path d="M11.318 17H6.705v1.597H8.26V28h1.503v-9.403h1.555zM13.774 26.063c-.125.175-.263.32-.413.433s-.273.17-.37.17c-.126 0-.217-.044-.273-.13-.056-.083-.084-.222-.084-.413V20H11.3v6.68c0 .48.078.838.234 1.077.157.24.39.358.698.358.25 0 .51-.086.774-.256.266-.172.522-.42.768-.748V28h1.335v-8h-1.336v6.063zM18.945 19.86c-.207 0-.41.066-.613.194-.2.127-.394.313-.572.56V17h-1.35v11h1.35v-.62c.175.247.364.428.568.545.206.118.438.176.7.176.395 0 .696-.15.904-.453.21-.305.314-.74.314-1.312v-4.46c0-.655-.11-1.155-.335-1.497-.22-.344-.542-.517-.965-.517zm-.07 6.257c0 .255-.04.44-.117.553-.078.113-.197.17-.36.17a.645.645 0 0 1-.323-.088 1.197 1.197 0 0 1-.314-.282v-5.007c.09-.11.182-.192.275-.245a.58.58 0 0 1 .282-.08c.182 0 .32.072.416.213.093.14.142.347.142.617v4.15zM25.18 24.17v-2.045c0-.763-.163-1.35-.49-1.755-.33-.405-.798-.61-1.41-.61-.596 0-1.082.22-1.46.66-.377.438-.565 1.007-.565 1.705v3.605c0 .774.17 1.382.515 1.824.344.44.813.662 1.412.662.664 0 1.163-.208 1.498-.626.334-.416.5-1.037.5-1.86V25h-1.372v.686c0 .473-.044.78-.132.916-.088.14-.242.208-.465.208-.21 0-.362-.082-.45-.245-.087-.164-.13-.456-.13-.88V24.17h2.55zm-2.552-2.06c0-.337.046-.578.138-.724.093-.146.245-.22.458-.22.203 0 .352.073.443.22.093.146.14.387.14.723V23h-1.18v-.89z"/></g></svg></svg>